<mxfile host="app.diagrams.net" modified="2023-05-12T08:10:15.024Z" agent="Mozilla/5.0 (Windows NT 10.0; Win64; x64) AppleWebKit/537.36 (KHTML, like Gecko) Chrome/110.0.0.0 YaBrowser/23.3.3.719 Yowser/2.5 Safari/537.36" etag="5mkVwXjIYBPZM52dSs6z" version="21.2.9" type="device">
  <diagram name="Страница 1" id="Cmo_T6vjp423woAqkqbY">
    <mxGraphModel dx="989" dy="540" grid="1" gridSize="10" guides="1" tooltips="1" connect="1" arrows="1" fold="1" page="1" pageScale="1" pageWidth="1169" pageHeight="827" math="0" shadow="0">
      <root>
        <mxCell id="0" />
        <mxCell id="1" parent="0" />
        <mxCell id="dcRey789fxyarJWvhsJo-45" value="" style="rounded=0;whiteSpace=wrap;html=1;dashed=1;" vertex="1" parent="1">
          <mxGeometry x="320" y="260" width="410" height="140" as="geometry" />
        </mxCell>
        <mxCell id="dcRey789fxyarJWvhsJo-3" style="edgeStyle=orthogonalEdgeStyle;rounded=0;orthogonalLoop=1;jettySize=auto;html=1;exitX=1;exitY=0.25;exitDx=0;exitDy=0;entryX=0;entryY=0.25;entryDx=0;entryDy=0;" edge="1" parent="1" source="dcRey789fxyarJWvhsJo-1" target="dcRey789fxyarJWvhsJo-2">
          <mxGeometry relative="1" as="geometry" />
        </mxCell>
        <mxCell id="dcRey789fxyarJWvhsJo-1" value="Блок&lt;br&gt;MASTER" style="rounded=0;whiteSpace=wrap;html=1;" vertex="1" parent="1">
          <mxGeometry x="360" y="300" width="120" height="60" as="geometry" />
        </mxCell>
        <mxCell id="dcRey789fxyarJWvhsJo-4" style="edgeStyle=orthogonalEdgeStyle;rounded=0;orthogonalLoop=1;jettySize=auto;html=1;exitX=0;exitY=0.75;exitDx=0;exitDy=0;entryX=1;entryY=0.75;entryDx=0;entryDy=0;" edge="1" parent="1" source="dcRey789fxyarJWvhsJo-2" target="dcRey789fxyarJWvhsJo-1">
          <mxGeometry relative="1" as="geometry" />
        </mxCell>
        <mxCell id="dcRey789fxyarJWvhsJo-2" value="Блок&lt;br&gt;SENSORS" style="rounded=0;whiteSpace=wrap;html=1;" vertex="1" parent="1">
          <mxGeometry x="510" y="300" width="120" height="60" as="geometry" />
        </mxCell>
        <mxCell id="dcRey789fxyarJWvhsJo-5" value="" style="endArrow=none;html=1;rounded=0;entryX=0;entryY=0.5;entryDx=0;entryDy=0;" edge="1" parent="1" target="dcRey789fxyarJWvhsJo-1">
          <mxGeometry width="50" height="50" relative="1" as="geometry">
            <mxPoint x="340" y="280" as="sourcePoint" />
            <mxPoint x="530" y="350" as="targetPoint" />
            <Array as="points">
              <mxPoint x="340" y="310" />
              <mxPoint x="340" y="330" />
            </Array>
          </mxGeometry>
        </mxCell>
        <mxCell id="dcRey789fxyarJWvhsJo-6" value="" style="endArrow=none;html=1;rounded=0;" edge="1" parent="1">
          <mxGeometry width="50" height="50" relative="1" as="geometry">
            <mxPoint x="350" y="280" as="sourcePoint" />
            <mxPoint x="330" y="280" as="targetPoint" />
            <Array as="points">
              <mxPoint x="340" y="290" />
            </Array>
          </mxGeometry>
        </mxCell>
        <mxCell id="dcRey789fxyarJWvhsJo-10" value="Bluetooth" style="text;html=1;strokeColor=none;fillColor=none;align=center;verticalAlign=middle;whiteSpace=wrap;rounded=0;" vertex="1" parent="1">
          <mxGeometry x="240" y="240" width="60" height="30" as="geometry" />
        </mxCell>
        <mxCell id="dcRey789fxyarJWvhsJo-12" value="" style="group" vertex="1" connectable="0" parent="1">
          <mxGeometry x="250" y="290" width="20" as="geometry" />
        </mxCell>
        <mxCell id="dcRey789fxyarJWvhsJo-7" value="" style="curved=1;endArrow=none;html=1;rounded=0;strokeColor=default;endFill=0;" edge="1" parent="dcRey789fxyarJWvhsJo-12">
          <mxGeometry width="50" height="50" relative="1" as="geometry">
            <mxPoint x="30" y="10" as="sourcePoint" />
            <mxPoint x="30" y="-10" as="targetPoint" />
            <Array as="points">
              <mxPoint x="20" />
            </Array>
          </mxGeometry>
        </mxCell>
        <mxCell id="dcRey789fxyarJWvhsJo-8" value="" style="curved=1;endArrow=none;html=1;rounded=0;strokeColor=default;endFill=0;" edge="1" parent="dcRey789fxyarJWvhsJo-12">
          <mxGeometry width="50" height="50" relative="1" as="geometry">
            <mxPoint x="25" y="15" as="sourcePoint" />
            <mxPoint x="25" y="-15" as="targetPoint" />
            <Array as="points">
              <mxPoint x="10" />
            </Array>
          </mxGeometry>
        </mxCell>
        <mxCell id="dcRey789fxyarJWvhsJo-9" value="" style="curved=1;endArrow=none;html=1;rounded=0;strokeColor=default;endFill=0;" edge="1" parent="dcRey789fxyarJWvhsJo-12">
          <mxGeometry width="50" height="50" relative="1" as="geometry">
            <mxPoint x="20" y="20" as="sourcePoint" />
            <mxPoint x="20" y="-20" as="targetPoint" />
            <Array as="points">
              <mxPoint />
            </Array>
          </mxGeometry>
        </mxCell>
        <mxCell id="dcRey789fxyarJWvhsJo-29" value="" style="group" vertex="1" connectable="0" parent="1">
          <mxGeometry x="100" y="270" width="130" height="80" as="geometry" />
        </mxCell>
        <mxCell id="dcRey789fxyarJWvhsJo-13" value="" style="rounded=0;whiteSpace=wrap;html=1;" vertex="1" parent="dcRey789fxyarJWvhsJo-29">
          <mxGeometry x="50" width="80" height="60" as="geometry" />
        </mxCell>
        <mxCell id="dcRey789fxyarJWvhsJo-14" value="PC" style="rounded=0;whiteSpace=wrap;html=1;" vertex="1" parent="dcRey789fxyarJWvhsJo-29">
          <mxGeometry x="60" y="10" width="60" height="40" as="geometry" />
        </mxCell>
        <mxCell id="dcRey789fxyarJWvhsJo-17" value="" style="rounded=0;whiteSpace=wrap;html=1;" vertex="1" parent="dcRey789fxyarJWvhsJo-29">
          <mxGeometry width="40" height="80" as="geometry" />
        </mxCell>
        <mxCell id="dcRey789fxyarJWvhsJo-18" value="" style="rounded=0;whiteSpace=wrap;html=1;" vertex="1" parent="dcRey789fxyarJWvhsJo-29">
          <mxGeometry x="10" y="10" width="20" height="10" as="geometry" />
        </mxCell>
        <mxCell id="dcRey789fxyarJWvhsJo-19" value="" style="rounded=0;whiteSpace=wrap;html=1;" vertex="1" parent="dcRey789fxyarJWvhsJo-29">
          <mxGeometry x="10" y="25" width="20" height="10" as="geometry" />
        </mxCell>
        <mxCell id="dcRey789fxyarJWvhsJo-27" value="" style="rounded=0;whiteSpace=wrap;html=1;" vertex="1" parent="dcRey789fxyarJWvhsJo-29">
          <mxGeometry x="72.5" y="60" width="35" height="10" as="geometry" />
        </mxCell>
        <mxCell id="dcRey789fxyarJWvhsJo-28" value="" style="rounded=0;whiteSpace=wrap;html=1;" vertex="1" parent="dcRey789fxyarJWvhsJo-29">
          <mxGeometry x="50" y="70" width="80" height="10" as="geometry" />
        </mxCell>
        <mxCell id="dcRey789fxyarJWvhsJo-35" style="edgeStyle=orthogonalEdgeStyle;rounded=0;orthogonalLoop=1;jettySize=auto;html=1;exitX=0;exitY=0.5;exitDx=0;exitDy=0;entryX=1;entryY=0.25;entryDx=0;entryDy=0;endArrow=none;endFill=0;" edge="1" parent="1" source="dcRey789fxyarJWvhsJo-30" target="dcRey789fxyarJWvhsJo-2">
          <mxGeometry relative="1" as="geometry">
            <Array as="points">
              <mxPoint x="650" y="285" />
              <mxPoint x="650" y="315" />
            </Array>
          </mxGeometry>
        </mxCell>
        <mxCell id="dcRey789fxyarJWvhsJo-30" value="S" style="rounded=0;whiteSpace=wrap;html=1;" vertex="1" parent="1">
          <mxGeometry x="660" y="270" width="30" height="30" as="geometry" />
        </mxCell>
        <mxCell id="dcRey789fxyarJWvhsJo-34" style="edgeStyle=orthogonalEdgeStyle;rounded=0;orthogonalLoop=1;jettySize=auto;html=1;exitX=0;exitY=0.5;exitDx=0;exitDy=0;entryX=1;entryY=0.5;entryDx=0;entryDy=0;endArrow=none;endFill=0;" edge="1" parent="1" source="dcRey789fxyarJWvhsJo-31" target="dcRey789fxyarJWvhsJo-2">
          <mxGeometry relative="1" as="geometry" />
        </mxCell>
        <mxCell id="dcRey789fxyarJWvhsJo-31" value="S" style="rounded=0;whiteSpace=wrap;html=1;" vertex="1" parent="1">
          <mxGeometry x="660" y="315" width="30" height="30" as="geometry" />
        </mxCell>
        <mxCell id="dcRey789fxyarJWvhsJo-33" style="edgeStyle=orthogonalEdgeStyle;rounded=0;orthogonalLoop=1;jettySize=auto;html=1;exitX=0;exitY=0.5;exitDx=0;exitDy=0;entryX=1;entryY=0.75;entryDx=0;entryDy=0;endArrow=none;endFill=0;" edge="1" parent="1" source="dcRey789fxyarJWvhsJo-32" target="dcRey789fxyarJWvhsJo-2">
          <mxGeometry relative="1" as="geometry">
            <Array as="points">
              <mxPoint x="650" y="375" />
              <mxPoint x="650" y="345" />
            </Array>
          </mxGeometry>
        </mxCell>
        <mxCell id="dcRey789fxyarJWvhsJo-32" value="S" style="rounded=0;whiteSpace=wrap;html=1;" vertex="1" parent="1">
          <mxGeometry x="660" y="360" width="30" height="30" as="geometry" />
        </mxCell>
        <mxCell id="dcRey789fxyarJWvhsJo-37" value="" style="endArrow=classic;html=1;rounded=0;" edge="1" parent="1">
          <mxGeometry width="50" height="50" relative="1" as="geometry">
            <mxPoint x="720" y="280" as="sourcePoint" />
            <mxPoint x="700" y="280" as="targetPoint" />
          </mxGeometry>
        </mxCell>
        <mxCell id="dcRey789fxyarJWvhsJo-38" value="" style="endArrow=classic;html=1;rounded=0;" edge="1" parent="1">
          <mxGeometry width="50" height="50" relative="1" as="geometry">
            <mxPoint x="720" y="289.52" as="sourcePoint" />
            <mxPoint x="700" y="289.52" as="targetPoint" />
          </mxGeometry>
        </mxCell>
        <mxCell id="dcRey789fxyarJWvhsJo-41" value="" style="group" vertex="1" connectable="0" parent="1">
          <mxGeometry x="700" y="325.24" width="20" height="9.519999999999982" as="geometry" />
        </mxCell>
        <mxCell id="dcRey789fxyarJWvhsJo-39" value="" style="endArrow=classic;html=1;rounded=0;" edge="1" parent="dcRey789fxyarJWvhsJo-41">
          <mxGeometry width="50" height="50" relative="1" as="geometry">
            <mxPoint x="20" as="sourcePoint" />
            <mxPoint as="targetPoint" />
          </mxGeometry>
        </mxCell>
        <mxCell id="dcRey789fxyarJWvhsJo-40" value="" style="endArrow=classic;html=1;rounded=0;" edge="1" parent="dcRey789fxyarJWvhsJo-41">
          <mxGeometry width="50" height="50" relative="1" as="geometry">
            <mxPoint x="20" y="9.519999999999982" as="sourcePoint" />
            <mxPoint y="9.519999999999982" as="targetPoint" />
          </mxGeometry>
        </mxCell>
        <mxCell id="dcRey789fxyarJWvhsJo-42" value="" style="group" vertex="1" connectable="0" parent="1">
          <mxGeometry x="700" y="369.76" width="20" height="9.519999999999982" as="geometry" />
        </mxCell>
        <mxCell id="dcRey789fxyarJWvhsJo-43" value="" style="endArrow=classic;html=1;rounded=0;" edge="1" parent="dcRey789fxyarJWvhsJo-42">
          <mxGeometry width="50" height="50" relative="1" as="geometry">
            <mxPoint x="20" as="sourcePoint" />
            <mxPoint as="targetPoint" />
          </mxGeometry>
        </mxCell>
        <mxCell id="dcRey789fxyarJWvhsJo-44" value="" style="endArrow=classic;html=1;rounded=0;" edge="1" parent="1">
          <mxGeometry width="50" height="50" relative="1" as="geometry">
            <mxPoint x="720" y="379.76" as="sourcePoint" />
            <mxPoint x="700" y="379.76" as="targetPoint" />
          </mxGeometry>
        </mxCell>
        <mxCell id="dcRey789fxyarJWvhsJo-46" value="Приложение" style="text;html=1;strokeColor=none;fillColor=none;align=center;verticalAlign=middle;whiteSpace=wrap;rounded=0;" vertex="1" parent="1">
          <mxGeometry x="140" y="240" width="60" height="30" as="geometry" />
        </mxCell>
        <mxCell id="dcRey789fxyarJWvhsJo-47" value="Мультисенсор" style="text;html=1;strokeColor=none;fillColor=none;align=center;verticalAlign=middle;whiteSpace=wrap;rounded=0;" vertex="1" parent="1">
          <mxGeometry x="495" y="230" width="60" height="30" as="geometry" />
        </mxCell>
      </root>
    </mxGraphModel>
  </diagram>
</mxfile>
